<?xml version="1.0" encoding="utf-8"?>
<!-- Generator: Adobe Illustrator 16.0.0, SVG Export Plug-In . SVG Version: 6.00 Build 0) -->
<!DOCTYPE svg PUBLIC "-//W3C//DTD SVG 1.0//EN" "http://www.w3.org/TR/2001/REC-SVG-20010904/DTD/svg10.dtd">
<svg version="1.0" id="Ebene_1" xmlns="http://www.w3.org/2000/svg" xmlns:xlink="http://www.w3.org/1999/xlink" x="0px" y="0px" width="974.7px" height="1461.9px" viewBox="0 0 974.7 1461.9" enable-background="new 0 0 974.7 1461.9" xml:space="preserve">
	<g>
		<path fill-rule="evenodd" clip-rule="evenodd" d="M461.227,635.256c0.55,1.36,1.119,2.769,1.689,4.177
		c0.157-0.011,0.314-0.022,0.472-0.033c0.139-0.829,0.176-1.694,0.454-2.474c0.168-0.473,0.708-0.813,1.082-1.213
		c0.368,0.412,0.962,0.773,1.065,1.243c0.687,3.12,1.318,6.254,1.864,9.402c0.357,2.06,0.54,4.15,0.827,6.44
		c3.637-2.715,7.218-5.378,10.785-8.06c0.636-0.479,1.25-1,1.813-1.563c3.132-3.136,6.622-5.708,10.758-7.425
		c3.219-1.337,6.274-3.07,9.508-4.365c4.549-1.821,9.242-3.026,14.2-3.397c4.987-0.373,9.963-0.535,14.956-0.56
		c2.751-0.014,5.307,0.605,7.833,1.702c2.837,1.23,5.817,2.127,8.687,3.288c4.163,1.685,8.292,3.457,12.413,5.239
		c0.815,0.352,1.631,0.818,2.282,1.411c5.834,5.304,11.704,10.545,15.823,17.453c1.95,3.271,3.908,6.479,4.986,10.157
		c0.195,0.664,0.489,1.324,0.861,1.906c1.291,2.017,2.653,3.987,2.864,6.482c0.011,0.13,0.291,0.238,0.597,0.471
		c0.825-0.852,1.67-1.724,2.894-2.987c0.257,2.126,0.449,3.728,0.683,5.657c2.126-1.325,1.576-3.076,1.543-4.615
		c1.036-0.649,1.824-0.471,2.224,0.594c1.104,2.939,1.892,5.902,0.625,9.034c-1.646,4.072-3.167,8.195-4.875,12.241
		c-0.448,1.062-1.226,2.131-2.137,2.822c-2.184,1.654-3.586,3.824-4.284,6.347c-1.354,4.892-3.886,9.183-6.477,13.452
		c-1.03,1.699-2.286,3.26-3.419,4.898c-0.965,1.395-1.973,2.766-2.831,4.225c-1.807,3.068-4.341,5.488-6.987,7.762
		c-2.722,2.338-5.562,4.56-8.499,6.619c-1.779,1.247-3.836,2.102-5.781,3.107c-0.977,0.505-2.021,0.885-2.964,1.443
		c-4.465,2.646-9.446,3.83-14.42,4.873c-5.274,1.107-10.587,1.539-16.055,0.813c-4.979-0.661-9.815-1.729-14.643-3.011
		c-3.761-0.998-6.771-3.378-10.083-5.204c-3.525-1.944-6.521-4.584-9.377-7.385c-2.355-2.31-4.699-4.633-6.991-7.005
		c-0.897-0.927-1.802-1.912-2.426-3.027c-2.189-3.913-4.249-7.898-6.379-11.844c-0.517-0.957-1.155-1.847-1.665-2.806
		c-0.695-1.308-1.707-2.597-1.908-3.992c-0.854-5.918-2.204-11.805-2.067-17.818c0.093-4.078,0.655-8.143,0.913-12.221
		c0.163-2.58,0.179-5.171,0.195-7.757c0.003-0.572-0.094-1.326-0.454-1.688c-1.243-1.244-1.167-2.928-1.726-4.396
		c-1.703-4.474-3.482-8.92-5.258-13.366c-0.599-1.5-1.952-2.84-0.691-4.66c0.208-0.3-0.203-0.969-0.159-1.453
		c0.135-1.479,0.249-2.974,0.565-4.42c0.347-1.586,1.296-2.509,3.079-2.786C458.508,636.784,459.704,635.939,461.227,635.256z" />
		<path fill-rule="evenodd" clip-rule="evenodd" d="M420.269,339.644c-0.227,2.796-0.421,5.147-0.607,7.499
		c-0.078,0.989-0.226,1.983-0.185,2.969c0.096,2.289,0.4,4.572,0.419,6.86c0.059,6.915,0.819,13.718,2.401,20.468
		c1.023,4.364,1.493,8.855,2.3,13.273c0.933,5.106,1.928,10.202,2.963,15.288c1.016,4.991,2.215,9.945,3.152,14.95
		c0.881,4.702,1.496,9.453,2.28,14.173c0.752,4.528,1.62,9.037,2.35,13.568c1.317,8.18,2.563,16.37,3.852,24.554
		c0.187,1.184,0.446,2.356,0.659,3.536c1.152,6.385,2.27,12.777,3.46,19.154c0.586,3.137,1.402,6.233,1.936,9.378
		c0.651,3.832,1.111,7.696,1.66,11.544c0.295,2.067,0.512,4.151,0.928,6.194c1.215,5.967,2.536,11.913,3.755,17.879
		c0.197,0.964,0.062,1.994,0.124,2.99c0.062,0.994,0.085,2.003,0.287,2.973c1.277,6.154,2.655,12.287,3.885,18.45
		c0.721,3.608,0.944,7.317,2.658,10.693c0.381,0.75,0.398,1.769,0.334,2.645c-0.247,3.371,0.472,6.544,1.672,9.661
		c0.572,1.484,1.068,3.019,0.427,4.953c-0.777-0.674-1.45-1.257-2.175-1.887c-0.146,0.398-0.295,0.592-0.263,0.749
		c0.558,2.739,0.594,2.804-1.692,3.929c-2.803,1.38-5.376,3.021-7.601,5.256c-1.039,1.045-2.47,1.688-3.65,2.606
		c-1.739,1.352-4.27,0.189-4.913-1.659c-0.131-0.377-0.278-0.754-0.357-1.143c-0.631-3.13-1.248-6.263-1.87-9.394
		c-0.156-0.784-0.313-1.567-0.482-2.347c-1.288-5.955-2.528-11.92-3.888-17.858c-0.736-3.212-1.557-6.416-2.553-9.556
		c-1.758-5.54-2.916-11.204-3.959-16.909c-0.538-2.943-1.429-5.821-2.151-8.73c-1.493-6.013-3.029-12.014-4.458-18.042
		c-1.794-7.571-3.496-15.164-5.244-22.746c-1.369-5.939-2.764-11.873-4.117-17.815c-1.107-4.866-2.149-9.748-3.256-14.614
		c-1.75-7.697-3.511-15.391-5.308-23.077c-0.478-2.042-1.065-4.061-1.672-6.069c-1.396-4.621-1.539-9.448-2.396-14.157
		c-0.553-3.042-0.98-6.128-1.811-9.097c-1.461-5.219-2.201-10.574-2.859-15.9c-0.772-6.253-1.756-12.44-3.099-18.59
		c-0.961-4.396-1.524-8.855-1.289-13.382c0.141-2.705,0.886-5.181,3.107-6.868c1.084-0.823,2.421-1.385,3.724-1.832
		c2.752-0.945,5.486-1.908,7.848-3.655c1.121-0.829,2.099-1.851,3.226-2.669c3.308-2.404,6.645-4.769,10.003-7.102
		C418.43,340.317,419.19,340.117,420.269,339.644z" />
		<path fill-rule="evenodd" clip-rule="evenodd" d="M593.791,635.057c-0.576,0.292-1.087,0.55-1.797,0.912
		c-0.175-0.458-0.436-0.865-0.477-1.293c-0.233-2.374-0.479-4.75-0.593-7.131c-0.108-2.277-0.024-4.564-0.097-6.844
		c-0.041-1.288-0.14-2.587-0.367-3.853c-0.461-2.558-0.11-4.966,1.134-7.229c0.21-0.384,0.692-0.845,1.058-0.852
		c0.347-0.007,0.908,0.467,1.028,0.842c2.286,7.089,5.228,14.004,6.425,21.391c0.811,4.995,1.736,10.017,1.548,15.12
		c-0.054,1.477-0.349,2.96-0.679,4.408c-0.251,1.098-0.886,1.997-2.371,2.322c-0.181-0.614-0.518-1.226-0.512-1.835
		c0.014-1.775-0.537-3.349-1.522-4.765c-0.938-1.349-1.411-2.796-1.604-4.43C594.711,639.662,594.232,637.531,593.791,635.057z" />
	</g>
</svg>
