<?xml version="1.0" encoding="utf-8"?>
<!-- Generator: Adobe Illustrator 16.0.0, SVG Export Plug-In . SVG Version: 6.00 Build 0) -->
<!DOCTYPE svg PUBLIC "-//W3C//DTD SVG 1.0//EN" "http://www.w3.org/TR/2001/REC-SVG-20010904/DTD/svg10.dtd">
<svg version="1.0" id="Ebene_1" xmlns="http://www.w3.org/2000/svg" xmlns:xlink="http://www.w3.org/1999/xlink" x="0px" y="0px" width="974.7px" height="1461.9px" viewBox="0 0 974.7 1461.9" enable-background="new 0 0 974.7 1461.9" xml:space="preserve">
	<g>
		<path fill-rule="evenodd" clip-rule="evenodd" d="M308.918,1293.557c0.398,0.095-0.159,1.208,0.571,2.598
					s1.495,1.944,4.24,2.501s4.656,1.251,7.575,1.668s1.564,0.034,9.104,0.591s8.409,0.626,13.135,0.626s9.451-0.826,9.451-0.826
					s6.639-1.988,9.279-2.996s5.769-2.363,9.591-4.518s4.656-2.912,5.82-4.236s1.894-2.714,3.909-2.888s2.259-2.363,2.419-3.964
					c0.142-1.418,0.674-1.666,2.133-2.986s6.012-5.038,8.167-6.394s4.17-2.988,7.854-3.996s3.926-0.833,5.038-2.224
					s1.738-0.835,2.78-1.217s3.301-0.938,6.394-3.231s3.91-3.72,4.14-5.089s-0.098-1.789,0.487-1.912s1.106,1.024,1.315,2.588
					s1.614,10.241,1.703,13.239s0,4.808-3.666,8.363s-9.087,6.088-14.352,7.82c-3.219,1.06-5.246,2.346-9.616,3.089
					c-3.757,1.013-4.969,1.696-7.085,3.268c-1.883,1.397-3.505,2.166-4.304,5.12s-3.299,5.865-6.037,7.684
					c-3.917,2.603-8.261,4.426-12.776,5.787c-2.006,0.604-4.049,1.1-6.028,1.782c-3.623,1.25-7.299,1.755-8.743,1.765
					s-3.981,0.253-5.301,0.114s-5.282-0.054-8.466-0.272c-2.088-0.143-4.173-0.355-6.252-0.596
					c-4.756-0.55-9.525-1.027-14.257-1.745c-3.05-0.463-7.377-1.406-9.052-1.998s-3.437-2.376-2.698-4.493s1.146-4.899,1.146-4.899
					s0.07-1.91,0.521-4.378S308.521,1293.462,308.918,1293.557z" />
		<path fill-rule="evenodd" clip-rule="evenodd" d="M687.131,1302.65c0.527-0.018,1.063,2.208,0.555,5.674
					c-0.816,3.465,0.171,9.354,0.114,11.043s-0.812,7.051-5.095,9.881c-2.014,1.331-4.18,2.277-6.585,2.747
					c-4.706,0.918-9.397,1.599-14.233,1.619c-5.672,0.023-11.342,0.601-17.012,0.937c-0.299,0.019-0.604,0.07-0.896,0.033
					c-4.386-0.568-8.752,0.353-13.132,0.167c-0.997-0.042-1.999-0.018-2.995-0.077c-5.484-0.33-9.21-3.379-12.017-7.825
					c-0.158-0.249-0.29-0.637-0.458-2.567s-0.394-6.832,0.79-8.1s0.794-4.079,0.761-6.308c-0.012-0.788,0.127-1.581,0.241-2.365
					c0.023-0.158,0.242-0.288,0.512-0.587c0.711,2.077,1.189,3.683,1.189,3.683s0.621,2.62,1.606,4.311s3.151,3.972,5.857,4.704
					s6.789,1.211,10.874,1.408s11.635-0.027,11.635-0.027s7.187,0.083,11.748-0.311s6.698,0.001,13.854-2.76
					s9.636-6.694,10.368-7.737s1.294-1.39,1.744-3.108S686.672,1303.14,687.131,1302.65z" />
	</g>
</svg>
